<svg xmlns="http://www.w3.org/2000/svg" xmlns:xlink="http://www.w3.org/1999/xlink" fill="none" version="1.1" width="267.8999938964844" height="68.52999877929688" viewBox="0 0 267.8999938964844 68.52999877929688"><defs><clipPath id="master_svg0_140_01894"><rect x="0" y="0" width="267.8999938964844" height="68.52999877929688" rx="0"/></clipPath></defs><g clip-path="url(#master_svg0_140_01894)"><g><path d="M34.27,0C53.150002,0,68.540001,15.39,68.540001,34.27C68.540001,38,67.93,41.59,66.82,44.950001L66.449997,44.950001C66.449997,44.950001,38.259995,44.940002,33.849998,44.860001C29.429998,44.790001,30.909998,39.490002,30.909998,39.490002L40.479996,9.9800014L28.629995,9.9800014L25.389996,19.990002L19.349995,19.990002L25.16,1.3L25.16,1.2299999C28.07,0.42999989,31.119999,-1.1920929e-7,34.27,0ZM56.919998,59.799999C50.869999,65.139999,42.939999,68.529999,34.269997,68.529999C15.39,68.529999,0,53.139999,0,34.27C0,24.42,4.1900001,15.52,10.88,9.2600002L10.88,9.3900003L1.1,39.639999L12.87,39.639999L17.790001,24.849998L23.830002,24.849998C23.830002,24.849998,16.480001,47.129997,14.420002,53.459999C12.350002,59.829998,17.810001,59.799999,17.810001,59.799999L56.91,59.799999L56.919998,59.799999ZM42.379997,20.07L54.219997,20.07L47.969997,39.619999L36.139999,39.619999L42.389999,20.07L42.379997,20.07ZM44.239998,14.68L45.839996,9.8900003L57.539997,9.8900003L55.939999,14.68L44.239998,14.68Z" fill-rule="evenodd" fill="#CD131C" fill-opacity="1" style="mix-blend-mode:passthrough"/></g><g><g><path d="M85.54000091552734,19.579999923706055L91.80000301552734,19.579999923706055L91.80000301552734,32.06999992370606L105.74999991552734,32.06999992370606L105.74999991552734,19.579999923706055L112.01000191552734,19.579999923706055L112.01000191552734,50.749999923706056L105.74999991552734,50.749999923706056L105.74999991552734,37.060000923706056L91.80000301552734,37.060000923706056L91.80000301552734,50.749999923706056L85.54000091552734,50.749999923706056L85.54000091552734,19.579999923706055Z" fill="#040000" fill-opacity="1" style="mix-blend-mode:passthrough"/></g><g><path d="M120.44999694306641,24.030000668115235C119.91999814306641,23.739999768115233,119.50999450306641,23.329999968115235,119.2099990830664,22.800001168115234C118.9199981730664,22.280000668115235,118.7699966430664,21.690000568115234,118.7699966430664,21.050001168115234C118.7699966430664,20.050001168115234,119.0999984730664,19.220001268115233,119.7500000030664,18.590000148115234C120.40000154306641,17.950000758115234,121.2399978430664,17.630001068115234,122.2600021430664,17.630001068115234C122.9200058430664,17.630001068115234,123.52000424306641,17.780000688115233,124.0600051430664,18.070001598115233C124.60000614306641,18.360002518115234,125.02000424306641,18.770002368115236,125.33000184306641,19.290000868115236C125.6399993430664,19.810001368115234,125.7900009430664,20.400001568115236,125.7900009430664,21.060001368115234C125.7900009430664,21.720001268115233,125.6399993430664,22.290000868115236,125.33000184306641,22.800001168115234C125.02000424306641,23.320001568115234,124.5900039430664,23.730001468115233,124.05000304306641,24.030000668115235C123.50000004306641,24.329999968115235,122.9100036430664,24.480001468115233,122.2600021430664,24.480001468115233C121.6100006430664,24.480001468115233,120.9800033430664,24.330001868115232,120.45000454306641,24.040000868115236L120.44999694306641,24.030000668115235ZM119.1599960330664,27.460000968115235L125.3399963430664,27.460000968115235L125.3399963430664,50.750000068115234L119.1599960330664,50.750000068115234L119.1599960330664,27.460000968115235Z" fill="#040000" fill-opacity="1" style="mix-blend-mode:passthrough"/></g><g><path d="M135.11999511367188,50.59000052587891C133.36000061367187,50.200000525878906,131.83000181367188,49.68000052587891,130.51998901367188,49.02999852587891L132.36999511367188,44.20999952587891C133.54998781367186,44.7999995258789,134.87998961367188,45.27999852587891,136.36000061367187,45.6599995258789C137.85000611367187,46.04000052587891,139.16999821367187,46.22999952587891,140.33000181367188,46.22999952587891C141.88999901367188,46.22999952587891,143.08999601367188,45.889999525878906,143.91000401367188,45.200000525878906C144.73001101367188,44.5100025258789,145.15000901367188,43.6100005258789,145.15000901367188,42.49000152587891C145.15000901367188,41.6100005258789,144.88000501367188,40.8600005258789,144.33000201367187,40.22000152587891C143.77999901367187,39.580001525878906,143.08000201367187,39.030002525878906,142.22999601367187,38.5600015258789C141.3799900136719,38.09000052587891,140.15998841367187,37.520000525878906,138.58000181367188,36.830001525878906C136.94000241367186,36.1100005258789,135.58999631367186,35.3700025258789,134.50999451367187,34.60000252587891C133.42999271367188,33.830001525878906,132.58999631367186,32.910003525878906,131.9899902136719,31.84000252587891C131.38998413367187,30.77000252587891,131.08999633367188,29.500001525878908,131.08999633367188,28.020002325878906C131.08999633367188,26.170002025878908,131.53999331367189,24.580001825878906,132.44999691367187,23.240001725878905C133.36000061367187,21.900001525878906,134.61000061367187,20.890001325878906,136.22000121367188,20.190002425878905C137.83000181367188,19.490001675878908,139.66999821367187,19.150001525878906,141.75000001367187,19.150001525878906C143.28999301367188,19.150001525878906,144.86000101367188,19.330001835878907,146.46000701367188,19.680002215878908C148.07000701367187,20.030002595878905,149.36000101367188,20.470003125878907,150.33000201367187,21.000001925878905L149.11999501367188,26.020002325878906C146.53999301367188,24.760002125878906,144.08999601367188,24.130002925878905,141.77999901367187,24.130002925878905C140.41999821367187,24.130002925878905,139.33000181367188,24.380002925878905,138.50999451367187,24.880002925878905C137.68998721367188,25.380002925878905,137.27999881367188,26.170002025878908,137.27999881367188,27.250003825878906C137.27999881367188,27.950004625878904,137.50000001367187,28.560003325878906,137.92999271367188,29.070003525878906C138.35998531367187,29.580003525878908,139.00999451367187,30.070003525878906,139.86999511367188,30.540002525878904C140.72999601367187,31.010002525878907,142.08999601367188,31.670001525878906,143.9400020136719,32.50000352587891C145.65000901367188,33.2700045258789,147.04000901367186,34.06000552587891,148.11000101367188,34.8700025258789C149.18000801367188,35.6700015258789,149.99000501367186,36.6200025258789,150.53999301367188,37.70000452587891C151.08999601367188,38.7800065258789,151.36999501367188,40.0800055258789,151.36999501367188,41.590003525878906C151.36999501367188,43.660003525878906,150.9199980136719,45.410003525878906,150.00999401367187,46.840003525878906C149.11000101367188,48.280002525878906,147.83000201367187,49.36000452587891,146.1699980136719,50.090003525878906C144.50999401367187,50.8200035258789,142.55999801367187,51.1900025258789,140.30000301367187,51.1900025258789C138.58999631367186,51.1900025258789,136.86000061367187,50.99000152587891,135.10000611367187,50.60000252587891L135.11999511367188,50.59000052587891Z" fill="#040000" fill-opacity="1" style="mix-blend-mode:passthrough"/></g><g><path d="M158.52999874472656,24.030000668115235C158.00000004472656,23.739999768115233,157.58999633472655,23.329999968115235,157.28999328472656,22.800001168115234C157.00000000472656,22.280000668115235,156.84999084472656,21.690000568115234,156.84999084472656,21.050001168115234C156.84999084472656,20.050001168115234,157.17999267472655,19.220001268115233,157.82998657472658,18.590000148115234C158.47998044472655,17.950000758115234,159.31999204472658,17.630001068115234,160.33998104472656,17.630001068115234C160.99998474472656,17.630001068115234,161.59997554472656,17.780000688115233,162.13998414472655,18.070001598115233C162.67997744472657,18.360002518115234,163.09999084472656,18.770002368115236,163.40998844472657,19.290000868115236C163.71998594472657,19.810001368115234,163.86999514472657,20.400001568115236,163.86999514472657,21.060001368115234C163.86999514472657,21.720001268115233,163.72000124472657,22.290000868115236,163.40998844472657,22.800001168115234C163.09999084472656,23.320001568115234,162.66998294472657,23.730001468115233,162.12998964472655,24.030000668115235C161.57998654472655,24.329999968115235,160.98999024472656,24.480001468115233,160.33999634472656,24.480001468115233C159.69000244472656,24.480001468115233,159.05999754472657,24.330001868115232,158.52999874472656,24.040000868115236L158.52999874472656,24.030000668115235ZM157.24000549472657,27.460000968115235L163.41999814472655,27.460000968115235L163.41999814472655,50.750000068115234L157.24000549472657,50.750000068115234L157.24000549472657,27.460000968115235Z" fill="#040000" fill-opacity="1" style="mix-blend-mode:passthrough"/></g><g><path d="M172.02999877929688,49.660000237060544C171.02999877929688,48.65000123706055,170.52999877929688,47.06000123706055,170.52999877929688,44.88999923706055L170.52999877929688,17.729999547060547L176.7099914792969,17.299999237060547L176.7099914792969,43.77999923706055C176.7099914792969,44.70999923706054,176.88998417929687,45.36999923706055,177.23999027929688,45.75000023706055C177.58999637929688,46.13000123706055,178.09999087929688,46.31999923706054,178.77998347929687,46.31999923706054C179.21998597929687,46.31999923706054,179.72998047929687,46.22999923706055,180.3099822792969,46.04000123706055L181.01998877929688,50.38999923706055C180.44998167929688,50.63000123706055,179.72999567929688,50.82999823706054,178.87998957929688,50.97000123706054C178.02998347929687,51.11000023706055,177.2099914792969,51.19000223706055,176.43998717929688,51.19000223706055C174.49998477929688,51.19000223706055,173.03999327929688,50.680004237060544,172.03999327929688,49.670002237060544L172.02999877929688,49.660000237060544Z" fill="#040000" fill-opacity="1" style="mix-blend-mode:passthrough"/></g><g><path d="M186.419998134375,24.030000668115235C185.889999434375,23.739999768115233,185.479995724375,23.329999968115235,185.179992674375,22.800001168115234C184.889999394375,22.280000668115235,184.739990234375,21.690000568115234,184.739990234375,21.050001168115234C184.739990234375,20.050001168115234,185.069992064375,19.220001268115233,185.719985964375,18.590000148115234C186.369979834375,17.950000758115234,187.209991434375,17.630001068115234,188.229980434375,17.630001068115234C188.889984134375,17.630001068115234,189.489974934375,17.780000688115233,190.029983534375,18.070001598115233C190.569976834375,18.360002518115234,190.989990234375,18.770002368115236,191.299987834375,19.290000868115236C191.609985334375,19.810001368115234,191.759994534375,20.400001568115236,191.759994534375,21.060001368115234C191.759994534375,21.720001268115233,191.610000634375,22.290000868115236,191.299987834375,22.800001168115234C190.989990234375,23.320001568115234,190.559982334375,23.730001468115233,190.019989034375,24.030000668115235C189.469985934375,24.329999968115235,188.879989634375,24.480001468115233,188.229995734375,24.480001468115233C187.580001834375,24.480001468115233,186.949996934375,24.330001868115232,186.419998134375,24.040000868115236L186.419998134375,24.030000668115235ZM185.130004884375,27.460000968115235L191.309997534375,27.460000968115235L191.309997534375,50.750000068115234L185.130004884375,50.750000068115234L185.130004884375,27.460000968115235Z" fill="#040000" fill-opacity="1" style="mix-blend-mode:passthrough"/></g><g><path d="M202.6499939171875,49.93000013623047C201.0099945171875,49.09999813623047,199.7200012171875,47.81000113623047,198.7799988171875,46.08000213623047C197.8399963371875,44.34000013623047,197.3699951171875,42.170002136230465,197.3699951171875,39.56000113623047C197.3699951171875,36.950000736230464,197.8499908471875,34.68000033623047,198.7999878171875,32.79000093623047C199.7499847171875,30.90000153623047,201.0899811171875,29.47000123623047,202.7999878171875,28.48000143623047C204.5099945171875,27.50000190623047,206.4799805171875,27.01000213623047,208.70999111718749,27.01000213623047C210.0699921171875,27.01000213623047,211.4199981171875,27.18000221623047,212.7499851171875,27.520002366230468C214.0799861171875,27.86000251623047,215.2399901171875,28.28000263623047,216.2499851171875,28.78000263623047L214.6799771171875,33.04000093623047C213.85997011718752,32.61000063623047,212.9599761171875,32.26000213623047,211.9799801171875,31.990001636230467C210.9999851171875,31.72000123623047,210.0999751171875,31.58000183623047,209.2999881171875,31.58000183623047C207.45999111718749,31.58000183623047,206.0699920171875,32.27000043623047,205.1099853171875,33.64000323623047C204.1599884171875,35.01000213623047,203.6799927171875,36.89000323623047,203.6799927171875,39.29000513623047C203.6799927171875,41.690006136230465,204.1899872171875,43.630005136230466,205.1999969171875,44.81000513623047C206.2099914171875,45.990005136230465,207.6399991171875,46.59000413623047,209.4899901171875,46.59000413623047C210.3399961171875,46.59000413623047,211.1799931171875,46.480003136230465,212.0199891171875,46.26000213623047C212.8599851171875,46.04000113623047,213.7599941171875,45.730003136230465,214.7199861171875,45.32000313623047L215.9899901171875,49.30000313623047C215.0099941171875,49.83000213623047,213.8799901171875,50.280002136230465,212.5899961171875,50.65000113623047C211.3000031171875,51.020000136230465,209.8799901171875,51.20000113623047,208.3300021171875,51.20000113623047C206.1900024171875,51.20000113623047,204.3000030171875,50.780002136230465,202.6600036171875,49.95000113623047L202.6499939171875,49.93000013623047Z" fill="#040000" fill-opacity="1" style="mix-blend-mode:passthrough"/></g><g><path d="M224.40999601201173,49.84999855041504C222.70999911201173,48.959999550415034,221.3700027120117,47.62999755041504,220.40000151201173,45.86999855041504C219.42000580201173,44.09999855041504,218.93999481201172,41.94999655041504,218.93999481201172,39.40999955041504C218.93999481201172,36.87000275041504,219.4300003020117,34.61999895041504,220.40000151201173,32.75999835041504C221.37999721201172,30.889997450415038,222.73000331201172,29.46999745041504,224.4700088120117,28.48999785041504C226.2100143120117,27.50999832041504,228.2100143120117,27.01999855041504,230.48000381201172,27.01999855041504C232.74999281201173,27.01999855041504,234.6700058120117,27.49999809041504,236.3700028120117,28.46999935041504C238.06999981201173,29.43999865041504,239.39000681201173,30.84000015041504,240.34000381201173,32.66999815041504C241.29000081201173,34.49999995041504,241.76000181201172,36.66999815041504,241.76000181201172,39.18000055041504C241.76000181201172,41.69000255041504,241.26999681201173,43.90999955041504,240.29000081201173,45.709999550415034C239.31000481201173,47.509998550415034,237.93999481201172,48.86999855041504,236.2000048120117,49.79999955041504C234.45999881201172,50.72999955041504,232.4700088120117,51.18999855041504,230.23000381201172,51.18999855041504C227.98999791201172,51.18999855041504,226.12999721201172,50.74999955041504,224.4300003120117,49.85999655041504L224.40999601201173,49.84999855041504ZM235.4000018120117,39.40999955041504C235.4000018120117,36.93000035041504,234.98000381201172,35.00999835041504,234.1299968120117,33.65999985041504C233.2799908120117,32.310001350415035,232.01000181201172,31.63999935041504,230.31999981201173,31.63999935041504C228.62999721201172,31.63999935041504,227.3199997120117,32.31999965041504,226.48999791201172,33.68000035041504C225.65999601201173,35.040000950415035,225.23999791201172,36.92000195041504,225.23999791201172,39.31999955041504C225.23999791201172,41.71999755041504,225.68999481201172,43.40999955041504,226.59999851201172,44.66999855041504C227.49999241201172,45.92999655041504,228.8199997120117,46.54999955041504,230.54000081201173,46.54999955041504C233.78000681201172,46.54999955041504,235.4000018120117,44.16999855041504,235.4000018120117,39.39999755041504L235.4000018120117,39.40999955041504Z" fill="#040000" fill-opacity="1" style="mix-blend-mode:passthrough"/></g><g><path d="M246.69998931990236,33.360000628881835C246.69998931990236,31.190000528881836,246.63999175990233,29.229999528881837,246.52999114990234,27.460000988881838L252.38999174990235,27.460000988881838C252.47998804990235,27.930000308881837,252.55998994990233,28.530000728881838,252.63999174990235,29.260000228881836C252.71999354990234,29.979999528881837,252.76999664990234,30.590000128881837,252.79999544990235,31.079999928881836C253.52999114990234,30.260000228881836,254.22998804990235,29.569999728881836,254.90000154990236,29.000000028881836C255.56999964990234,28.430000328881835,256.3799972499023,27.959999088881837,257.33000914990237,27.579999918881835C258.2800221499023,27.200000758881835,259.37999714990235,27.010000228881836,260.61000814990234,27.010000228881836C262.12001814990236,27.010000228881836,263.42000614990235,27.340000148881835,264.51000214990233,28.010000228881836C265.5999981499023,28.680000328881835,266.43999514990236,29.670000028881837,267.02999114990234,30.989999728881834C267.61998714990233,32.31000132888184,267.9099961499023,33.919998128881836,267.9099961499023,35.81000132888184L267.9099961499023,50.75000022888183L261.77999114990234,50.75000022888183L261.77999114990234,36.26000212888184C261.77999114990234,34.770000428881836,261.49999214990237,33.66000362888184,260.93999514990236,32.94000242888183C260.37999714990235,32.220001228881834,259.52999114990234,31.860002528881836,258.39998614990236,31.860002528881836C257.3499981499023,31.860002528881836,256.38997654990237,32.120002728881836,255.49999234990236,32.65000152888184C254.61998744990234,33.17000202888184,253.74999234990236,33.880001028881836,252.87999724990235,34.770000428881836L252.87999724990235,50.74000122888184L246.70000457990236,50.74000122888184L246.70000457990236,33.350002328881835L246.69998931990236,33.360000628881835Z" fill="#040000" fill-opacity="1" style="mix-blend-mode:passthrough"/></g></g></g></svg>